# MagicaVoxel @ Ephtracy

# group
o 

# material
mtllib Building 2.mtl
usemtl palette

# normals
vn -1 0 0
vn 1 0 0
vn 0 0 1
vn 0 0 -1
vn 0 -1 0
vn 0 1 0

# texcoords
vt 0.978516 0.5
vt 0.982422 0.5
vt 0.990234 0.5
vt 0.994141 0.5

# verts
v 0 2 0
v 0 2 -4
v 0 5 0
v 0 5 -4
v 0.4 2 0
v 0.4 2 -0.2
v 0.4 4 0
v 0.4 4 -0.1
v 0.4 4 -0.2
v 0.9 2 0
v 0.9 2 -0.2
v 0.9 4 0
v 0.9 4 -0.1
v 0.9 4 -0.2
v 1.2 4.2 0
v 1.2 4.2 -0.1
v 1.2 4.2 -0.4
v 1.2 4.2 -0.5
v 1.2 4.4 -0.4
v 1.2 4.4 -0.5
v 1.2 4.5 -0.4
v 1.2 4.5 -0.5
v 1.2 4.8 0
v 1.2 4.8 -0.1
v 1.2 4.8 -0.4
v 1.2 4.8 -0.5
v 1.4 2 0
v 1.4 2 -0.2
v 1.4 4 0
v 1.4 4 -0.1
v 1.4 4 -0.2
v 1.9 2 0
v 1.9 2 -0.2
v 1.9 4 0
v 1.9 4 -0.1
v 1.9 4 -0.2
v 1.9 4.2 0
v 1.9 4.2 -0.1
v 1.9 4.8 0
v 1.9 4.8 -0.1
v 2.4 2 0
v 2.4 2 -0.2
v 2.4 4 0
v 2.4 4 -0.1
v 2.4 4 -0.2
v 2.9 2 0
v 2.9 2 -0.2
v 2.9 4 0
v 2.9 4 -0.1
v 2.9 4 -0.2
v 3.4 2 0
v 3.4 2 -0.2
v 3.4 4 0
v 3.4 4 -0.1
v 3.4 4 -0.2
v 3.8 2 0
v 3.8 2 -0.1
v 3.8 2 -1.1
v 3.8 4 0
v 3.8 4 -0.1
v 3.8 4 -0.4
v 3.8 4 -0.5
v 3.8 4 -1.1
v 3.8 4.2 0
v 3.8 4.2 -0.1
v 3.8 4.8 0
v 3.8 4.8 -0.1
v 0.2 2 0
v 0.2 2 -0.1
v 0.2 2 -1.1
v 0.2 4 0
v 0.2 4 -0.1
v 0.2 4 -0.4
v 0.2 4 -0.5
v 0.2 4 -1.1
v 0.2 4.2 0
v 0.2 4.2 -0.1
v 0.2 4.2 -0.4
v 0.2 4.2 -0.5
v 0.2 4.8 0
v 0.2 4.8 -0.1
v 0.2 4.8 -0.4
v 0.2 4.8 -0.5
v 0.6 2 0
v 0.6 2 -0.2
v 0.6 4 0
v 0.6 4 -0.1
v 0.6 4 -0.2
v 1.1 2 0
v 1.1 2 -0.2
v 1.1 4 0
v 1.1 4 -0.1
v 1.1 4 -0.2
v 1.3 4.2 0
v 1.3 4.2 -0.1
v 1.3 4.8 0
v 1.3 4.8 -0.1
v 1.6 2 0
v 1.6 2 -0.2
v 1.6 4 0
v 1.6 4 -0.1
v 1.6 4 -0.2
v 2.1 2 0
v 2.1 2 -0.2
v 2.1 4 0
v 2.1 4 -0.1
v 2.1 4 -0.2
v 2.6 2 0
v 2.6 2 -0.2
v 2.6 4 0
v 2.6 4 -0.1
v 2.6 4 -0.2
v 3.1 2 0
v 3.1 2 -0.2
v 3.1 4 0
v 3.1 4 -0.1
v 3.1 4 -0.2
v 3.2 4.2 0
v 3.2 4.2 -0.1
v 3.2 4.8 0
v 3.2 4.8 -0.1
v 3.6 2 0
v 3.6 2 -0.2
v 3.6 4 0
v 3.6 4 -0.1
v 3.6 4 -0.2
v 4 2 0
v 4 2 -4
v 4 5 0
v 4 5 -4
v 0 2 0
v 0 5 0
v 0.1 2 0
v 0.1 4.9 0
v 0.2 2 0
v 0.2 4 0
v 0.2 4.2 0
v 0.2 4.8 0
v 0.4 2 0
v 0.4 4 0
v 0.6 2 0
v 0.6 4 0
v 0.9 2 0
v 0.9 4 0
v 1.1 2 0
v 1.1 4 0
v 1.2 4.2 0
v 1.2 4.8 0
v 1.3 4.2 0
v 1.3 4.8 0
v 1.4 2 0
v 1.4 4 0
v 1.6 2 0
v 1.6 4 0
v 1.9 2 0
v 1.9 4 0
v 1.9 4.2 0
v 1.9 4.8 0
v 2.1 2 0
v 2.1 4 0
v 2.4 2 0
v 2.4 4 0
v 2.6 2 0
v 2.6 4 0
v 2.9 2 0
v 2.9 4 0
v 3.1 2 0
v 3.1 4 0
v 3.2 4.2 0
v 3.2 4.8 0
v 3.4 2 0
v 3.4 4 0
v 3.6 2 0
v 3.6 4 0
v 3.8 2 0
v 3.8 4 0
v 3.8 4.2 0
v 3.8 4.8 0
v 3.9 2 0
v 3.9 4.9 0
v 4 2 0
v 4 5 0
v 1.3 4.2 -0.1
v 1.3 4.8 -0.1
v 1.9 4.2 -0.1
v 1.9 4.8 -0.1
v 3.2 4.2 -0.1
v 3.2 4.8 -0.1
v 3.8 4.2 -0.1
v 3.8 4.8 -0.1
v 0.2 4.2 -0.5
v 0.2 4.8 -0.5
v 1.2 4.2 -0.5
v 1.2 4.4 -0.5
v 1.2 4.5 -0.5
v 1.2 4.8 -0.5
v 0.2 2 -1.1
v 0.2 4 -1.1
v 3.8 2 -1.1
v 3.8 4 -1.1
v 0.4 2 -0.2
v 0.4 4 -0.2
v 0.6 2 -0.2
v 0.6 4 -0.2
v 0.9 2 -0.2
v 0.9 4 -0.2
v 1.1 2 -0.2
v 1.1 4 -0.2
v 1.4 2 -0.2
v 1.4 4 -0.2
v 1.6 2 -0.2
v 1.6 4 -0.2
v 1.9 2 -0.2
v 1.9 4 -0.2
v 2.1 2 -0.2
v 2.1 4 -0.2
v 2.4 2 -0.2
v 2.4 4 -0.2
v 2.6 2 -0.2
v 2.6 4 -0.2
v 2.9 2 -0.2
v 2.9 4 -0.2
v 3.1 2 -0.2
v 3.1 4 -0.2
v 3.4 2 -0.2
v 3.4 4 -0.2
v 3.6 2 -0.2
v 3.6 4 -0.2
v 0 2 -4
v 0 5 -4
v 4 2 -4
v 4 5 -4
v 0 2 0
v 0.1 2 0
v 0.2 2 0
v 0.4 2 0
v 0.6 2 0
v 0.9 2 0
v 1.1 2 0
v 1.4 2 0
v 1.6 2 0
v 1.9 2 0
v 2.1 2 0
v 2.4 2 0
v 2.6 2 0
v 2.9 2 0
v 3.1 2 0
v 3.4 2 0
v 3.6 2 0
v 3.8 2 0
v 3.9 2 0
v 4 2 0
v 0.1 2 -0.1
v 0.2 2 -0.1
v 3.8 2 -0.1
v 3.9 2 -0.1
v 0.4 2 -0.2
v 0.6 2 -0.2
v 0.9 2 -0.2
v 1.1 2 -0.2
v 1.4 2 -0.2
v 1.6 2 -0.2
v 1.9 2 -0.2
v 2.1 2 -0.2
v 2.4 2 -0.2
v 2.6 2 -0.2
v 2.9 2 -0.2
v 3.1 2 -0.2
v 3.4 2 -0.2
v 3.6 2 -0.2
v 0.2 2 -1.1
v 3.8 2 -1.1
v 0.2 2 -1.2
v 3.8 2 -1.2
v 0 2 -4
v 4 2 -4
v 0.2 4 0
v 0.4 4 0
v 0.6 4 0
v 0.9 4 0
v 1.1 4 0
v 1.4 4 0
v 1.6 4 0
v 1.9 4 0
v 2.1 4 0
v 2.4 4 0
v 2.6 4 0
v 2.9 4 0
v 3.1 4 0
v 3.4 4 0
v 3.6 4 0
v 3.8 4 0
v 0.2 4 -0.1
v 0.4 4 -0.1
v 0.6 4 -0.1
v 0.9 4 -0.1
v 1.1 4 -0.1
v 1.4 4 -0.1
v 1.6 4 -0.1
v 1.9 4 -0.1
v 2.1 4 -0.1
v 2.4 4 -0.1
v 2.6 4 -0.1
v 2.9 4 -0.1
v 3.1 4 -0.1
v 3.4 4 -0.1
v 3.6 4 -0.1
v 3.8 4 -0.1
v 0.4 4 -0.2
v 0.6 4 -0.2
v 0.9 4 -0.2
v 1.1 4 -0.2
v 1.4 4 -0.2
v 1.6 4 -0.2
v 1.9 4 -0.2
v 2.1 4 -0.2
v 2.4 4 -0.2
v 2.6 4 -0.2
v 2.9 4 -0.2
v 3.1 4 -0.2
v 3.4 4 -0.2
v 3.6 4 -0.2
v 0.2 4 -0.4
v 3.8 4 -0.4
v 0.2 4 -0.5
v 3.8 4 -0.5
v 0.2 4 -1.1
v 3.8 4 -1.1
v 0.2 4.8 0
v 1.2 4.8 0
v 1.3 4.8 0
v 1.9 4.8 0
v 3.2 4.8 0
v 3.8 4.8 0
v 0.2 4.8 -0.1
v 1.2 4.8 -0.1
v 1.3 4.8 -0.1
v 1.9 4.8 -0.1
v 3.2 4.8 -0.1
v 3.8 4.8 -0.1
v 0.2 4.8 -0.4
v 1.2 4.8 -0.4
v 0.2 4.8 -0.5
v 1.2 4.8 -0.5
v 0.2 4.2 0
v 1.2 4.2 0
v 1.3 4.2 0
v 1.9 4.2 0
v 3.2 4.2 0
v 3.8 4.2 0
v 0.2 4.2 -0.1
v 1.2 4.2 -0.1
v 1.3 4.2 -0.1
v 1.9 4.2 -0.1
v 3.2 4.2 -0.1
v 3.8 4.2 -0.1
v 0.2 4.2 -0.4
v 1.2 4.2 -0.4
v 0.2 4.2 -0.5
v 1.2 4.2 -0.5
v 0 5 0
v 4 5 0
v 0 5 -4
v 4 5 -4

# faces
f 3/2/1 2/2/1 1/2/1
f 4/2/1 2/2/1 3/2/1
f 7/1/1 6/1/1 5/1/1
f 8/1/1 6/1/1 7/1/1
f 9/1/1 6/1/1 8/1/1
f 12/1/1 11/1/1 10/1/1
f 13/1/1 11/1/1 12/1/1
f 14/1/1 11/1/1 13/1/1
f 19/2/1 17/2/1 16/2/1
f 19/3/1 18/3/1 17/3/1
f 20/3/1 18/3/1 19/3/1
f 21/2/1 19/2/1 16/2/1
f 21/2/1 20/2/1 19/2/1
f 22/2/1 20/2/1 21/2/1
f 23/1/1 16/1/1 15/1/1
f 24/2/1 21/2/1 16/2/1
f 24/1/1 16/1/1 23/1/1
f 25/3/1 22/3/1 21/3/1
f 25/2/1 21/2/1 24/2/1
f 26/3/1 22/3/1 25/3/1
f 29/1/1 28/1/1 27/1/1
f 30/1/1 28/1/1 29/1/1
f 31/1/1 28/1/1 30/1/1
f 34/1/1 33/1/1 32/1/1
f 35/1/1 33/1/1 34/1/1
f 36/1/1 33/1/1 35/1/1
f 39/3/1 38/3/1 37/3/1
f 40/3/1 38/3/1 39/3/1
f 43/1/1 42/1/1 41/1/1
f 44/1/1 42/1/1 43/1/1
f 45/1/1 42/1/1 44/1/1
f 48/1/1 47/1/1 46/1/1
f 49/1/1 47/1/1 48/1/1
f 50/1/1 47/1/1 49/1/1
f 53/1/1 52/1/1 51/1/1
f 54/1/1 52/1/1 53/1/1
f 55/1/1 52/1/1 54/1/1
f 59/1/1 57/1/1 56/1/1
f 60/2/1 58/2/1 57/2/1
f 60/1/1 57/1/1 59/1/1
f 61/2/1 58/2/1 60/2/1
f 62/2/1 58/2/1 61/2/1
f 63/2/1 58/2/1 62/2/1
f 66/1/1 65/1/1 64/1/1
f 67/1/1 65/1/1 66/1/1
f 68/1/2 69/1/2 71/1/2
f 69/2/2 70/2/2 72/2/2
f 71/1/2 69/1/2 72/1/2
f 72/2/2 70/2/2 73/2/2
f 73/2/2 70/2/2 74/2/2
f 74/2/2 70/2/2 75/2/2
f 76/1/2 77/1/2 80/1/2
f 78/2/2 79/2/2 81/2/2
f 80/1/2 77/1/2 81/1/2
f 77/2/2 78/2/2 81/2/2
f 81/2/2 79/2/2 82/2/2
f 82/2/2 79/2/2 83/2/2
f 84/1/2 85/1/2 86/1/2
f 86/1/2 85/1/2 87/1/2
f 87/1/2 85/1/2 88/1/2
f 89/1/2 90/1/2 91/1/2
f 91/1/2 90/1/2 92/1/2
f 92/1/2 90/1/2 93/1/2
f 94/1/2 95/1/2 96/1/2
f 96/1/2 95/1/2 97/1/2
f 98/1/2 99/1/2 100/1/2
f 100/1/2 99/1/2 101/1/2
f 101/1/2 99/1/2 102/1/2
f 103/1/2 104/1/2 105/1/2
f 105/1/2 104/1/2 106/1/2
f 106/1/2 104/1/2 107/1/2
f 108/1/2 109/1/2 110/1/2
f 110/1/2 109/1/2 111/1/2
f 111/1/2 109/1/2 112/1/2
f 113/1/2 114/1/2 115/1/2
f 115/1/2 114/1/2 116/1/2
f 116/1/2 114/1/2 117/1/2
f 118/3/2 119/3/2 120/3/2
f 120/3/2 119/3/2 121/3/2
f 122/1/2 123/1/2 124/1/2
f 124/1/2 123/1/2 125/1/2
f 125/1/2 123/1/2 126/1/2
f 127/2/2 128/2/2 129/2/2
f 129/2/2 128/2/2 130/2/2
f 133/2/3 132/2/3 131/2/3
f 134/2/3 132/2/3 133/2/3
f 135/1/3 134/1/3 133/1/3
f 136/1/3 134/1/3 135/1/3
f 137/1/3 134/1/3 136/1/3
f 138/1/3 134/1/3 137/1/3
f 140/1/3 137/1/3 136/1/3
f 141/1/3 140/1/3 139/1/3
f 142/1/3 137/1/3 140/1/3
f 142/1/3 140/1/3 141/1/3
f 144/1/3 137/1/3 142/1/3
f 145/1/3 144/1/3 143/1/3
f 146/1/3 137/1/3 144/1/3
f 146/1/3 144/1/3 145/1/3
f 147/1/3 137/1/3 146/1/3
f 148/1/3 134/1/3 138/1/3
f 149/1/3 147/1/3 146/1/3
f 149/1/3 148/1/3 147/1/3
f 150/1/3 134/1/3 148/1/3
f 150/1/3 148/1/3 149/1/3
f 152/1/3 149/1/3 146/1/3
f 153/1/3 152/1/3 151/1/3
f 154/1/3 149/1/3 152/1/3
f 154/1/3 152/1/3 153/1/3
f 156/1/3 149/1/3 154/1/3
f 157/1/3 149/1/3 156/1/3
f 158/1/3 134/1/3 150/1/3
f 159/1/3 157/1/3 156/1/3
f 159/1/3 156/1/3 155/1/3
f 160/1/3 157/1/3 159/1/3
f 162/1/3 157/1/3 160/1/3
f 163/1/3 162/1/3 161/1/3
f 164/1/3 157/1/3 162/1/3
f 164/1/3 162/1/3 163/1/3
f 166/1/3 157/1/3 164/1/3
f 167/1/3 166/1/3 165/1/3
f 168/1/3 157/1/3 166/1/3
f 168/1/3 166/1/3 167/1/3
f 169/3/3 158/3/3 157/3/3
f 169/1/3 157/1/3 168/1/3
f 170/1/3 134/1/3 158/1/3
f 170/3/3 158/3/3 169/3/3
f 172/1/3 169/1/3 168/1/3
f 173/1/3 172/1/3 171/1/3
f 174/1/3 169/1/3 172/1/3
f 174/1/3 172/1/3 173/1/3
f 176/1/3 169/1/3 174/1/3
f 177/1/3 169/1/3 176/1/3
f 178/1/3 134/1/3 170/1/3
f 179/1/3 177/1/3 176/1/3
f 179/1/3 178/1/3 177/1/3
f 179/1/3 176/1/3 175/1/3
f 180/2/3 132/2/3 134/2/3
f 180/1/3 178/1/3 179/1/3
f 180/1/3 134/1/3 178/1/3
f 181/2/3 180/2/3 179/2/3
f 182/2/3 132/2/3 180/2/3
f 182/2/3 180/2/3 181/2/3
f 185/2/3 184/2/3 183/2/3
f 186/2/3 184/2/3 185/2/3
f 189/2/3 188/2/3 187/2/3
f 190/2/3 188/2/3 189/2/3
f 193/3/3 192/3/3 191/3/3
f 194/3/3 192/3/3 193/3/3
f 195/3/3 192/3/3 194/3/3
f 196/3/3 192/3/3 195/3/3
f 199/4/3 198/4/3 197/4/3
f 200/4/3 198/4/3 199/4/3
f 201/1/4 202/1/4 203/1/4
f 203/1/4 202/1/4 204/1/4
f 205/1/4 206/1/4 207/1/4
f 207/1/4 206/1/4 208/1/4
f 209/1/4 210/1/4 211/1/4
f 211/1/4 210/1/4 212/1/4
f 213/1/4 214/1/4 215/1/4
f 215/1/4 214/1/4 216/1/4
f 217/1/4 218/1/4 219/1/4
f 219/1/4 218/1/4 220/1/4
f 221/1/4 222/1/4 223/1/4
f 223/1/4 222/1/4 224/1/4
f 225/1/4 226/1/4 227/1/4
f 227/1/4 226/1/4 228/1/4
f 229/2/4 230/2/4 231/2/4
f 231/2/4 230/2/4 232/2/4
f 253/2/5 234/2/5 233/2/5
f 253/1/5 235/1/5 234/1/5
f 254/1/5 235/1/5 253/1/5
f 255/1/5 251/1/5 250/1/5
f 256/2/5 252/2/5 251/2/5
f 256/1/5 251/1/5 255/1/5
f 257/1/5 237/1/5 236/1/5
f 258/1/5 237/1/5 257/1/5
f 259/1/5 239/1/5 238/1/5
f 260/1/5 239/1/5 259/1/5
f 261/1/5 241/1/5 240/1/5
f 262/1/5 241/1/5 261/1/5
f 263/1/5 243/1/5 242/1/5
f 264/1/5 243/1/5 263/1/5
f 265/1/5 245/1/5 244/1/5
f 266/1/5 245/1/5 265/1/5
f 267/1/5 247/1/5 246/1/5
f 268/1/5 247/1/5 267/1/5
f 269/1/5 249/1/5 248/1/5
f 270/1/5 249/1/5 269/1/5
f 271/2/5 254/2/5 253/2/5
f 272/2/5 256/2/5 255/2/5
f 273/2/5 271/2/5 253/2/5
f 273/4/5 272/4/5 271/4/5
f 274/2/5 256/2/5 272/2/5
f 274/4/5 272/4/5 273/4/5
f 275/2/5 273/2/5 253/2/5
f 275/2/5 253/2/5 233/2/5
f 275/2/5 274/2/5 273/2/5
f 276/2/5 256/2/5 274/2/5
f 276/2/5 274/2/5 275/2/5
f 276/2/5 252/2/5 256/2/5
f 293/1/5 278/1/5 277/1/5
f 294/1/5 278/1/5 293/1/5
f 295/1/5 280/1/5 279/1/5
f 296/1/5 280/1/5 295/1/5
f 297/1/5 282/1/5 281/1/5
f 298/1/5 282/1/5 297/1/5
f 299/1/5 284/1/5 283/1/5
f 300/1/5 284/1/5 299/1/5
f 301/1/5 286/1/5 285/1/5
f 302/1/5 286/1/5 301/1/5
f 303/1/5 288/1/5 287/1/5
f 304/1/5 288/1/5 303/1/5
f 305/1/5 290/1/5 289/1/5
f 306/1/5 290/1/5 305/1/5
f 307/1/5 292/1/5 291/1/5
f 308/1/5 292/1/5 307/1/5
f 309/2/5 294/2/5 293/2/5
f 310/2/5 296/2/5 295/2/5
f 311/2/5 296/2/5 310/2/5
f 312/2/5 298/2/5 297/2/5
f 313/2/5 298/2/5 312/2/5
f 314/2/5 300/2/5 299/2/5
f 315/2/5 300/2/5 314/2/5
f 316/2/5 302/2/5 301/2/5
f 317/2/5 302/2/5 316/2/5
f 318/2/5 304/2/5 303/2/5
f 319/2/5 304/2/5 318/2/5
f 320/2/5 306/2/5 305/2/5
f 321/2/5 306/2/5 320/2/5
f 322/2/5 308/2/5 307/2/5
f 323/2/5 319/2/5 318/2/5
f 323/2/5 322/2/5 321/2/5
f 323/2/5 309/2/5 293/2/5
f 323/2/5 311/2/5 310/2/5
f 323/2/5 320/2/5 319/2/5
f 323/2/5 313/2/5 312/2/5
f 323/2/5 318/2/5 317/2/5
f 323/2/5 315/2/5 314/2/5
f 323/2/5 316/2/5 315/2/5
f 323/2/5 317/2/5 316/2/5
f 323/2/5 314/2/5 313/2/5
f 323/2/5 321/2/5 320/2/5
f 323/2/5 312/2/5 311/2/5
f 323/2/5 310/2/5 309/2/5
f 324/2/5 308/2/5 322/2/5
f 324/2/5 322/2/5 323/2/5
f 325/3/5 324/3/5 323/3/5
f 326/3/5 324/3/5 325/3/5
f 327/2/5 326/2/5 325/2/5
f 328/2/5 326/2/5 327/2/5
f 335/1/5 330/1/5 329/1/5
f 336/1/5 330/1/5 335/1/5
f 337/1/5 332/1/5 331/1/5
f 338/1/5 332/1/5 337/1/5
f 339/1/5 334/1/5 333/1/5
f 340/1/5 334/1/5 339/1/5
f 341/2/5 336/2/5 335/2/5
f 342/2/5 336/2/5 341/2/5
f 343/3/5 342/3/5 341/3/5
f 344/3/5 342/3/5 343/3/5
f 345/1/6 346/1/6 351/1/6
f 351/1/6 346/1/6 352/1/6
f 347/1/6 348/1/6 353/1/6
f 353/1/6 348/1/6 354/1/6
f 349/1/6 350/1/6 355/1/6
f 355/1/6 350/1/6 356/1/6
f 351/2/6 352/2/6 357/2/6
f 357/2/6 352/2/6 358/2/6
f 357/3/6 358/3/6 359/3/6
f 359/3/6 358/3/6 360/3/6
f 361/2/6 362/2/6 363/2/6
f 363/2/6 362/2/6 364/2/6
