# MagicaVoxel @ Ephtracy

# group
o 

# material
mtllib Building 3.mtl
usemtl palette

# normals
vn -1 0 0
vn 1 0 0
vn 0 0 1
vn 0 0 -1
vn 0 -1 0
vn 0 1 0

# texcoords
vt 0.970703 0.5
vt 0.974609 0.5
vt 0.978516 0.5
vt 0.982422 0.5
vt 0.986328 0.5
vt 0.990234 0.5

# verts
v 0 2 0
v 0 2 -4
v 0 8 0
v 0 8 -4
v 0.2 8 -0.2
v 0.2 8 -3.8
v 0.2 8.3 -0.2
v 0.2 8.3 -3.8
v 0.5 8.3 -0.5
v 0.5 8.3 -3.5
v 0.5 8.6 -0.5
v 0.5 8.6 -3.5
v 0.8 8.6 -0.8
v 0.8 8.6 -3.2
v 0.8 8.9 -0.8
v 0.8 8.9 -3.2
v 1.1 8.9 -1.1
v 1.1 8.9 -2.9
v 1.1 9.2 -1.1
v 1.1 9.2 -2.9
v 1.3 2 -0.5
v 1.3 2 -0.8
v 1.3 2.4 -0.4
v 1.3 2.4 -0.5
v 1.3 2.5 -0.4
v 1.3 2.5 -0.5
v 1.3 2.5 -0.6
v 1.3 2.5 -0.8
v 1.3 2.6 -0.5
v 1.3 2.6 -0.6
v 1.4 2.4 -0.3
v 1.4 2.4 -0.4
v 1.4 2.5 -0.3
v 1.4 2.5 -0.4
v 1.5 2.4 -0.2
v 1.5 2.4 -0.3
v 1.5 2.5 -0.2
v 1.5 2.5 -0.3
v 1.9 9.2 -1.9
v 1.9 9.2 -2.1
v 1.9 10 -1.9
v 1.9 10 -2.1
v 2.6 2.5 -0.5
v 2.6 2.5 -0.6
v 2.6 2.6 -0.5
v 2.6 2.6 -0.6
v 3 2 -0.2
v 3 2 -0.8
v 3 5.2 -0.2
v 3 5.2 -0.8
v 3.6 2 -0.1
v 3.6 2 -0.2
v 3.6 7.6 -0.1
v 3.6 7.6 -0.2
v 3.8 2 0
v 3.8 2 -0.1
v 3.8 7.7 -0.1
v 3.8 7.8 0
v 3.8 7.8 -0.1
v 0.2 2 0
v 0.2 2 -0.1
v 0.2 7.7 -0.1
v 0.2 7.8 0
v 0.2 7.8 -0.1
v 0.4 2 -0.1
v 0.4 2 -0.2
v 0.4 7.6 -0.1
v 0.4 7.6 -0.2
v 1 2 -0.2
v 1 2 -0.8
v 1 5.2 -0.2
v 1 5.2 -0.8
v 1.4 2.5 -0.5
v 1.4 2.5 -0.6
v 1.4 2.6 -0.5
v 1.4 2.6 -0.6
v 2.1 9.2 -1.9
v 2.1 9.2 -2.1
v 2.1 10 -1.9
v 2.1 10 -2.1
v 2.5 2.4 -0.2
v 2.5 2.4 -0.3
v 2.5 2.5 -0.2
v 2.5 2.5 -0.3
v 2.6 2.4 -0.3
v 2.6 2.4 -0.4
v 2.6 2.5 -0.3
v 2.6 2.5 -0.4
v 2.7 2 -0.5
v 2.7 2 -0.8
v 2.7 2.4 -0.4
v 2.7 2.4 -0.5
v 2.7 2.5 -0.4
v 2.7 2.5 -0.5
v 2.7 2.5 -0.6
v 2.7 2.5 -0.8
v 2.7 2.6 -0.5
v 2.7 2.6 -0.6
v 2.9 8.9 -1.1
v 2.9 8.9 -2.9
v 2.9 9.2 -1.1
v 2.9 9.2 -2.9
v 3.2 8.6 -0.8
v 3.2 8.6 -3.2
v 3.2 8.9 -0.8
v 3.2 8.9 -3.2
v 3.5 8.3 -0.5
v 3.5 8.3 -3.5
v 3.5 8.6 -0.5
v 3.5 8.6 -3.5
v 3.8 8 -0.2
v 3.8 8 -3.8
v 3.8 8.3 -0.2
v 3.8 8.3 -3.8
v 4 2 0
v 4 2 -4
v 4 8 0
v 4 8 -4
v 0 2 0
v 0 8 0
v 0.2 2 0
v 0.2 7.8 0
v 3.8 2 0
v 3.8 7.8 0
v 4 2 0
v 4 8 0
v 0.2 2 -0.1
v 0.2 7.7 -0.1
v 0.2 7.8 -0.1
v 0.4 2 -0.1
v 0.4 7.6 -0.1
v 3.6 2 -0.1
v 3.6 7.6 -0.1
v 3.8 2 -0.1
v 3.8 7.7 -0.1
v 3.8 7.8 -0.1
v 0.2 8 -0.2
v 0.2 8.3 -0.2
v 0.4 2 -0.2
v 0.4 7.6 -0.2
v 1 2 -0.2
v 1 5.2 -0.2
v 1.5 2.4 -0.2
v 1.5 2.5 -0.2
v 2.5 2.4 -0.2
v 2.5 2.5 -0.2
v 3 2 -0.2
v 3 5.2 -0.2
v 3.6 2 -0.2
v 3.6 7.6 -0.2
v 3.8 8 -0.2
v 3.8 8.3 -0.2
v 1.4 2.4 -0.3
v 1.4 2.5 -0.3
v 1.5 2.4 -0.3
v 1.5 2.5 -0.3
v 2.5 2.4 -0.3
v 2.5 2.5 -0.3
v 2.6 2.4 -0.3
v 2.6 2.5 -0.3
v 1.3 2.4 -0.4
v 1.3 2.5 -0.4
v 1.4 2.4 -0.4
v 1.4 2.5 -0.4
v 2.6 2.4 -0.4
v 2.6 2.5 -0.4
v 2.7 2.4 -0.4
v 2.7 2.5 -0.4
v 0.5 8.3 -0.5
v 0.5 8.6 -0.5
v 1.3 2 -0.5
v 1.3 2.4 -0.5
v 1.3 2.5 -0.5
v 1.3 2.6 -0.5
v 1.4 2.5 -0.5
v 1.4 2.6 -0.5
v 1.9 2 -0.5
v 1.9 2.2 -0.5
v 2.1 2 -0.5
v 2.1 2.2 -0.5
v 2.6 2.5 -0.5
v 2.6 2.6 -0.5
v 2.7 2 -0.5
v 2.7 2.4 -0.5
v 2.7 2.5 -0.5
v 2.7 2.6 -0.5
v 3.5 8.3 -0.5
v 3.5 8.6 -0.5
v 0.8 8.6 -0.8
v 0.8 8.9 -0.8
v 1 2 -0.8
v 1 5.2 -0.8
v 1.3 2 -0.8
v 1.3 2.5 -0.8
v 2.7 2 -0.8
v 2.7 2.5 -0.8
v 3 2 -0.8
v 3 5.2 -0.8
v 3.2 8.6 -0.8
v 3.2 8.9 -0.8
v 1.1 8.9 -1.1
v 1.1 9.2 -1.1
v 2.9 8.9 -1.1
v 2.9 9.2 -1.1
v 1.9 9.2 -1.9
v 1.9 10 -1.9
v 2.1 9.2 -1.9
v 2.1 10 -1.9
v 1.3 2.5 -0.6
v 1.3 2.6 -0.6
v 1.4 2.5 -0.6
v 1.4 2.6 -0.6
v 2.6 2.5 -0.6
v 2.6 2.6 -0.6
v 2.7 2.5 -0.6
v 2.7 2.6 -0.6
v 1.9 9.2 -2.1
v 1.9 10 -2.1
v 2.1 9.2 -2.1
v 2.1 10 -2.1
v 1.1 8.9 -2.9
v 1.1 9.2 -2.9
v 2.9 8.9 -2.9
v 2.9 9.2 -2.9
v 0.8 8.6 -3.2
v 0.8 8.9 -3.2
v 3.2 8.6 -3.2
v 3.2 8.9 -3.2
v 0.5 8.3 -3.5
v 0.5 8.6 -3.5
v 3.5 8.3 -3.5
v 3.5 8.6 -3.5
v 0.2 8 -3.8
v 0.2 8.3 -3.8
v 3.8 8 -3.8
v 3.8 8.3 -3.8
v 0 2 -4
v 0 8 -4
v 4 2 -4
v 4 8 -4
v 0 2 0
v 0.2 2 0
v 3.8 2 0
v 4 2 0
v 0.2 2 -0.1
v 0.4 2 -0.1
v 3.6 2 -0.1
v 3.8 2 -0.1
v 0.2 2 -0.2
v 0.4 2 -0.2
v 1 2 -0.2
v 3 2 -0.2
v 3.6 2 -0.2
v 3.8 2 -0.2
v 1.3 2 -0.5
v 1.9 2 -0.5
v 2.1 2 -0.5
v 2.7 2 -0.5
v 1.9 2 -0.6
v 2.1 2 -0.6
v 1 2 -0.8
v 1.3 2 -0.8
v 2.7 2 -0.8
v 3 2 -0.8
v 0 2 -4
v 4 2 -4
v 1.5 2.4 -0.2
v 2.5 2.4 -0.2
v 1.4 2.4 -0.3
v 1.5 2.4 -0.3
v 2.5 2.4 -0.3
v 2.6 2.4 -0.3
v 1.3 2.4 -0.4
v 1.4 2.4 -0.4
v 2.6 2.4 -0.4
v 2.7 2.4 -0.4
v 1.3 2.4 -0.5
v 2.7 2.4 -0.5
v 1 5.2 -0.2
v 3 5.2 -0.2
v 1 5.2 -0.8
v 3 5.2 -0.8
v 0.4 7.6 -0.1
v 3.6 7.6 -0.1
v 0.4 7.6 -0.2
v 3.6 7.6 -0.2
v 0.2 7.8 0
v 3.8 7.8 0
v 0.2 7.8 -0.1
v 3.8 7.8 -0.1
v 1.5 2.5 -0.2
v 2.5 2.5 -0.2
v 1.4 2.5 -0.3
v 1.5 2.5 -0.3
v 2.5 2.5 -0.3
v 2.6 2.5 -0.3
v 1.3 2.5 -0.4
v 1.4 2.5 -0.4
v 2.6 2.5 -0.4
v 2.7 2.5 -0.4
v 1.3 2.5 -0.5
v 1.4 2.5 -0.5
v 2.6 2.5 -0.5
v 2.7 2.5 -0.5
v 1.3 2.5 -0.6
v 1.4 2.5 -0.6
v 2.6 2.5 -0.6
v 2.7 2.5 -0.6
v 1.3 2.5 -0.8
v 2.7 2.5 -0.8
v 1.3 2.6 -0.5
v 1.4 2.6 -0.5
v 2.6 2.6 -0.5
v 2.7 2.6 -0.5
v 1.3 2.6 -0.6
v 1.4 2.6 -0.6
v 2.6 2.6 -0.6
v 2.7 2.6 -0.6
v 0 8 0
v 4 8 0
v 0.2 8 -0.2
v 3.8 8 -0.2
v 0.2 8 -3.8
v 3.8 8 -3.8
v 0 8 -4
v 4 8 -4
v 0.2 8.3 -0.2
v 3.8 8.3 -0.2
v 0.5 8.3 -0.5
v 3.5 8.3 -0.5
v 0.5 8.3 -3.5
v 3.5 8.3 -3.5
v 0.2 8.3 -3.8
v 3.8 8.3 -3.8
v 0.5 8.6 -0.5
v 3.5 8.6 -0.5
v 0.8 8.6 -0.8
v 3.2 8.6 -0.8
v 0.8 8.6 -3.2
v 3.2 8.6 -3.2
v 0.5 8.6 -3.5
v 3.5 8.6 -3.5
v 0.8 8.9 -0.8
v 3.2 8.9 -0.8
v 1.1 8.9 -1.1
v 2.9 8.9 -1.1
v 1.1 8.9 -2.9
v 2.9 8.9 -2.9
v 0.8 8.9 -3.2
v 3.2 8.9 -3.2
v 1.1 9.2 -1.1
v 2.9 9.2 -1.1
v 1.9 9.2 -1.9
v 2.1 9.2 -1.9
v 1.9 9.2 -2.1
v 2.1 9.2 -2.1
v 1.1 9.2 -2.9
v 2.9 9.2 -2.9
v 1.9 10 -1.9
v 2.1 10 -1.9
v 1.9 10 -2.1
v 2.1 10 -2.1

# faces
f 3/4/1 2/4/1 1/4/1
f 4/4/1 2/4/1 3/4/1
f 7/2/1 6/2/1 5/2/1
f 8/2/1 6/2/1 7/2/1
f 11/2/1 10/2/1 9/2/1
f 12/2/1 10/2/1 11/2/1
f 15/2/1 14/2/1 13/2/1
f 16/2/1 14/2/1 15/2/1
f 19/2/1 18/2/1 17/2/1
f 20/2/1 18/2/1 19/2/1
f 24/3/1 22/3/1 21/3/1
f 25/1/1 24/1/1 23/1/1
f 26/3/1 22/3/1 24/3/1
f 26/1/1 24/1/1 25/1/1
f 27/3/1 22/3/1 26/3/1
f 28/3/1 22/3/1 27/3/1
f 29/3/1 27/3/1 26/3/1
f 30/3/1 27/3/1 29/3/1
f 33/1/1 32/1/1 31/1/1
f 34/1/1 32/1/1 33/1/1
f 37/1/1 36/1/1 35/1/1
f 38/1/1 36/1/1 37/1/1
f 41/1/1 40/1/1 39/1/1
f 42/1/1 40/1/1 41/1/1
f 45/3/1 44/3/1 43/3/1
f 46/3/1 44/3/1 45/3/1
f 49/4/1 48/4/1 47/4/1
f 50/4/1 48/4/1 49/4/1
f 53/6/1 52/6/1 51/6/1
f 54/6/1 52/6/1 53/6/1
f 57/4/1 56/4/1 55/4/1
f 58/4/1 57/4/1 55/4/1
f 59/4/1 57/4/1 58/4/1
f 60/4/2 61/4/2 62/4/2
f 60/4/2 62/4/2 63/4/2
f 63/4/2 62/4/2 64/4/2
f 65/6/2 66/6/2 67/6/2
f 67/6/2 66/6/2 68/6/2
f 69/4/2 70/4/2 71/4/2
f 71/4/2 70/4/2 72/4/2
f 73/3/2 74/3/2 75/3/2
f 75/3/2 74/3/2 76/3/2
f 77/1/2 78/1/2 79/1/2
f 79/1/2 78/1/2 80/1/2
f 81/1/2 82/1/2 83/1/2
f 83/1/2 82/1/2 84/1/2
f 85/1/2 86/1/2 87/1/2
f 87/1/2 86/1/2 88/1/2
f 89/3/2 90/3/2 92/3/2
f 91/1/2 92/1/2 93/1/2
f 92/3/2 90/3/2 94/3/2
f 93/1/2 92/1/2 94/1/2
f 94/3/2 90/3/2 95/3/2
f 95/3/2 90/3/2 96/3/2
f 94/3/2 95/3/2 97/3/2
f 97/3/2 95/3/2 98/3/2
f 99/2/2 100/2/2 101/2/2
f 101/2/2 100/2/2 102/2/2
f 103/2/2 104/2/2 105/2/2
f 105/2/2 104/2/2 106/2/2
f 107/2/2 108/2/2 109/2/2
f 109/2/2 108/2/2 110/2/2
f 111/2/2 112/2/2 113/2/2
f 113/2/2 112/2/2 114/2/2
f 115/4/2 116/4/2 117/4/2
f 117/4/2 116/4/2 118/4/2
f 121/4/3 120/4/3 119/4/3
f 122/4/3 120/4/3 121/4/3
f 124/4/3 120/4/3 122/4/3
f 125/4/3 124/4/3 123/4/3
f 126/4/3 120/4/3 124/4/3
f 126/4/3 124/4/3 125/4/3
f 130/6/3 128/6/3 127/6/3
f 131/6/3 128/6/3 130/6/3
f 133/6/3 128/6/3 131/6/3
f 134/6/3 133/6/3 132/6/3
f 135/5/3 129/5/3 128/5/3
f 135/6/3 133/6/3 134/6/3
f 135/6/3 128/6/3 133/6/3
f 136/5/3 129/5/3 135/5/3
f 141/4/3 140/4/3 139/4/3
f 142/4/3 140/4/3 141/4/3
f 145/1/3 144/1/3 143/1/3
f 146/1/3 144/1/3 145/1/3
f 148/4/3 140/4/3 142/4/3
f 149/4/3 148/4/3 147/4/3
f 150/4/3 140/4/3 148/4/3
f 150/4/3 148/4/3 149/4/3
f 151/2/3 138/2/3 137/2/3
f 152/2/3 138/2/3 151/2/3
f 155/1/3 154/1/3 153/1/3
f 156/1/3 154/1/3 155/1/3
f 159/1/3 158/1/3 157/1/3
f 160/1/3 158/1/3 159/1/3
f 163/1/3 162/1/3 161/1/3
f 164/1/3 162/1/3 163/1/3
f 167/1/3 166/1/3 165/1/3
f 168/1/3 166/1/3 167/1/3
f 175/3/3 174/3/3 173/3/3
f 176/3/3 174/3/3 175/3/3
f 177/3/3 172/3/3 171/3/3
f 178/3/3 172/3/3 177/3/3
f 179/6/3 178/6/3 177/6/3
f 180/3/3 172/3/3 178/3/3
f 180/6/3 178/6/3 179/6/3
f 183/3/3 180/3/3 179/3/3
f 184/3/3 172/3/3 180/3/3
f 184/3/3 180/3/3 183/3/3
f 185/3/3 182/3/3 181/3/3
f 186/3/3 182/3/3 185/3/3
f 187/2/3 170/2/3 169/2/3
f 188/2/3 170/2/3 187/2/3
f 193/4/3 192/4/3 191/4/3
f 194/4/3 192/4/3 193/4/3
f 196/4/3 192/4/3 194/4/3
f 197/4/3 196/4/3 195/4/3
f 198/4/3 192/4/3 196/4/3
f 198/4/3 196/4/3 197/4/3
f 199/2/3 190/2/3 189/2/3
f 200/2/3 190/2/3 199/2/3
f 203/2/3 202/2/3 201/2/3
f 204/2/3 202/2/3 203/2/3
f 207/1/3 206/1/3 205/1/3
f 208/1/3 206/1/3 207/1/3
f 209/3/4 210/3/4 211/3/4
f 211/3/4 210/3/4 212/3/4
f 213/3/4 214/3/4 215/3/4
f 215/3/4 214/3/4 216/3/4
f 217/1/4 218/1/4 219/1/4
f 219/1/4 218/1/4 220/1/4
f 221/2/4 222/2/4 223/2/4
f 223/2/4 222/2/4 224/2/4
f 225/2/4 226/2/4 227/2/4
f 227/2/4 226/2/4 228/2/4
f 229/2/4 230/2/4 231/2/4
f 231/2/4 230/2/4 232/2/4
f 233/2/4 234/2/4 235/2/4
f 235/2/4 234/2/4 236/2/4
f 237/4/4 238/4/4 239/4/4
f 239/4/4 238/4/4 240/4/4
f 245/4/5 242/4/5 241/4/5
f 248/4/5 244/4/5 243/4/5
f 249/6/5 246/6/5 245/6/5
f 249/4/5 245/4/5 241/4/5
f 250/6/5 246/6/5 249/6/5
f 253/6/5 248/6/5 247/6/5
f 254/4/5 244/4/5 248/4/5
f 254/6/5 248/6/5 253/6/5
f 259/3/5 256/3/5 255/3/5
f 259/6/5 257/6/5 256/6/5
f 260/3/5 258/3/5 257/3/5
f 260/6/5 257/6/5 259/6/5
f 261/4/5 251/4/5 250/4/5
f 261/4/5 250/4/5 249/4/5
f 262/3/5 260/3/5 259/3/5
f 262/3/5 259/3/5 255/3/5
f 263/3/5 258/3/5 260/3/5
f 263/3/5 260/3/5 262/3/5
f 264/4/5 253/4/5 252/4/5
f 264/4/5 254/4/5 253/4/5
f 265/4/5 262/4/5 261/4/5
f 265/4/5 264/4/5 263/4/5
f 265/4/5 263/4/5 262/4/5
f 265/4/5 249/4/5 241/4/5
f 265/4/5 261/4/5 249/4/5
f 266/4/5 254/4/5 264/4/5
f 266/4/5 264/4/5 265/4/5
f 266/4/5 244/4/5 254/4/5
f 270/1/5 268/1/5 267/1/5
f 271/1/5 268/1/5 270/1/5
f 274/1/5 270/1/5 269/1/5
f 274/1/5 272/1/5 271/1/5
f 274/1/5 271/1/5 270/1/5
f 275/1/5 272/1/5 274/1/5
f 277/1/5 274/1/5 273/1/5
f 277/1/5 276/1/5 275/1/5
f 277/1/5 275/1/5 274/1/5
f 278/1/5 276/1/5 277/1/5
f 281/4/5 280/4/5 279/4/5
f 282/4/5 280/4/5 281/4/5
f 285/6/5 284/6/5 283/6/5
f 286/6/5 284/6/5 285/6/5
f 289/4/5 288/4/5 287/4/5
f 290/4/5 288/4/5 289/4/5
f 291/1/6 292/1/6 294/1/6
f 294/1/6 292/1/6 295/1/6
f 293/1/6 294/1/6 298/1/6
f 295/1/6 296/1/6 298/1/6
f 294/1/6 295/1/6 298/1/6
f 298/1/6 296/1/6 299/1/6
f 297/1/6 298/1/6 301/1/6
f 299/1/6 300/1/6 301/1/6
f 298/1/6 299/1/6 301/1/6
f 301/1/6 300/1/6 302/1/6
f 302/1/6 300/1/6 303/1/6
f 303/1/6 300/1/6 304/1/6
f 302/3/6 303/3/6 306/3/6
f 306/3/6 303/3/6 307/3/6
f 305/3/6 306/3/6 309/3/6
f 307/3/6 308/3/6 309/3/6
f 306/3/6 307/3/6 309/3/6
f 309/3/6 308/3/6 310/3/6
f 311/3/6 312/3/6 315/3/6
f 315/3/6 312/3/6 316/3/6
f 313/3/6 314/3/6 317/3/6
f 317/3/6 314/3/6 318/3/6
f 319/4/6 320/4/6 321/4/6
f 321/4/6 320/4/6 322/4/6
f 319/4/6 321/4/6 323/4/6
f 322/4/6 320/4/6 324/4/6
f 319/4/6 323/4/6 325/4/6
f 323/4/6 324/4/6 325/4/6
f 324/4/6 320/4/6 326/4/6
f 325/4/6 324/4/6 326/4/6
f 327/2/6 328/2/6 329/2/6
f 329/2/6 328/2/6 330/2/6
f 327/2/6 329/2/6 331/2/6
f 330/2/6 328/2/6 332/2/6
f 327/2/6 331/2/6 333/2/6
f 331/2/6 332/2/6 333/2/6
f 332/2/6 328/2/6 334/2/6
f 333/2/6 332/2/6 334/2/6
f 335/2/6 336/2/6 337/2/6
f 337/2/6 336/2/6 338/2/6
f 335/2/6 337/2/6 339/2/6
f 338/2/6 336/2/6 340/2/6
f 335/2/6 339/2/6 341/2/6
f 339/2/6 340/2/6 341/2/6
f 340/2/6 336/2/6 342/2/6
f 341/2/6 340/2/6 342/2/6
f 343/2/6 344/2/6 345/2/6
f 345/2/6 344/2/6 346/2/6
f 343/2/6 345/2/6 347/2/6
f 346/2/6 344/2/6 348/2/6
f 343/2/6 347/2/6 349/2/6
f 347/2/6 348/2/6 349/2/6
f 348/2/6 344/2/6 350/2/6
f 349/2/6 348/2/6 350/2/6
f 351/2/6 352/2/6 353/2/6
f 353/2/6 352/2/6 354/2/6
f 351/2/6 353/2/6 355/2/6
f 354/2/6 352/2/6 356/2/6
f 351/2/6 355/2/6 357/2/6
f 355/2/6 356/2/6 357/2/6
f 356/2/6 352/2/6 358/2/6
f 357/2/6 356/2/6 358/2/6
f 359/1/6 360/1/6 361/1/6
f 361/1/6 360/1/6 362/1/6
