# MagicaVoxel @ Ephtracy

# group
o 

# material
mtllib Building 5.mtl
usemtl palette

# normals
vn -1 0 0
vn 1 0 0
vn 0 0 1
vn 0 0 -1
vn 0 -1 0
vn 0 1 0

# texcoords
vt 0.982422 0.5
vt 0.986328 0.5
vt 0.990234 0.5

# verts
v 0 2 -0.3
v 0 2 -4
v 0 3 -0.3
v 0 3 -4
v 0 3.2 -0.3
v 0 3.2 -4
v 0 4.1 -0.3
v 0 4.1 -3.7
v 0 4.3 -0.3
v 0 4.3 -3.7
v 0 6.7 0
v 0 6.7 -0.3
v 0 7.2 0
v 0 7.2 -4
v 0.8 7.1 -2.2
v 0.8 7.1 -2.8
v 0.8 7.4 -2.2
v 0.8 7.4 -2.8
v 1.3 4.6 -0.3
v 1.3 4.6 -0.8
v 1.3 6.5 -0.3
v 1.3 6.5 -0.8
v 2.6 4.6 -0.3
v 2.6 4.6 -4
v 2.6 5.5 -0.8
v 2.6 5.5 -1.1
v 2.6 5.8 -0.8
v 2.6 5.8 -1.1
v 2.6 6 -3.1
v 2.6 6 -3.5
v 2.6 6.2 -3.1
v 2.6 6.2 -3.5
v 2.6 6.7 -0.3
v 2.6 6.8 -0.3
v 2.6 7.1 -0.3
v 2.6 7.1 -3.8
v 2.6 7.2 -3.8
v 2.6 7.2 -4
v 3 7.1 -1.3
v 3 7.1 -3.2
v 3 7.4 -1.3
v 3 7.4 -3.2
v 3.8 7.1 -0.2
v 3.8 7.1 -0.3
v 3.8 7.1 -3.8
v 3.8 7.2 -0.2
v 3.8 7.2 -3.8
v 3.9 4.6 -0.3
v 3.9 4.6 -1
v 3.9 6.5 -0.3
v 3.9 6.5 -1
v 3.9 6.8 0
v 3.9 6.8 -0.2
v 3.9 7.1 0
v 3.9 7.1 -0.2
v 0.1 4.6 -0.3
v 0.1 4.6 -0.8
v 0.1 6.5 -0.3
v 0.1 6.5 -0.8
v 0.1 6.8 0
v 0.1 6.8 -0.2
v 0.1 7.1 0
v 0.1 7.1 -0.2
v 0.2 7.1 -0.2
v 0.2 7.1 -0.3
v 0.2 7.1 -3.8
v 0.2 7.2 -0.2
v 0.2 7.2 -3.8
v 1.1 7.1 -2.2
v 1.1 7.1 -2.8
v 1.1 7.4 -2.2
v 1.1 7.4 -2.8
v 1.4 4.6 -0.3
v 1.4 4.6 -4
v 1.4 5.5 -0.8
v 1.4 5.5 -1.1
v 1.4 5.8 -0.8
v 1.4 5.8 -1.1
v 1.4 6 -3.1
v 1.4 6 -3.5
v 1.4 6.2 -3.1
v 1.4 6.2 -3.5
v 1.4 6.7 -0.3
v 1.4 6.8 -0.3
v 1.4 7.1 -0.3
v 1.4 7.1 -3.8
v 1.4 7.2 -3.8
v 1.4 7.2 -4
v 2.7 4.6 -0.3
v 2.7 4.6 -1
v 2.7 6.5 -0.3
v 2.7 6.5 -1
v 3.5 7.1 -1.3
v 3.5 7.1 -3.2
v 3.5 7.4 -1.3
v 3.5 7.4 -3.2
v 4 2 -0.3
v 4 2 -4
v 4 3 -0.3
v 4 3 -4
v 4 3.2 -0.3
v 4 3.2 -4
v 4 4.1 -0.3
v 4 4.1 -3.7
v 4 4.3 -0.3
v 4 4.3 -3.7
v 4 6.7 0
v 4 6.7 -0.3
v 4 7.2 0
v 4 7.2 -4
v 0 6.7 0
v 0 7.2 0
v 0.1 6.8 0
v 0.1 7.1 0
v 3.9 6.8 0
v 3.9 7.1 0
v 4 6.7 0
v 4 7.2 0
v 0.1 6.8 -0.2
v 0.1 7.1 -0.2
v 3.9 6.8 -0.2
v 3.9 7.1 -0.2
v 0 2 -0.3
v 0 3 -0.3
v 0 3.2 -0.3
v 0 4.1 -0.3
v 0 4.3 -0.3
v 0 6.7 -0.3
v 0.1 4.6 -0.3
v 0.1 6.5 -0.3
v 1.3 4.6 -0.3
v 1.3 6.5 -0.3
v 1.4 4.6 -0.3
v 1.4 6.7 -0.3
v 2.6 4.6 -0.3
v 2.6 6.7 -0.3
v 2.7 4.6 -0.3
v 2.7 6.5 -0.3
v 3.9 4.6 -0.3
v 3.9 6.5 -0.3
v 4 2 -0.3
v 4 3 -0.3
v 4 3.2 -0.3
v 4 4.1 -0.3
v 4 4.3 -0.3
v 4 6.7 -0.3
v 0.1 4.6 -0.8
v 0.1 6.5 -0.8
v 1.3 4.6 -0.8
v 1.3 6.5 -0.8
v 1.4 5.5 -0.8
v 1.4 5.8 -0.8
v 2.6 5.5 -0.8
v 2.6 5.8 -0.8
v 2.7 4.6 -1
v 2.7 6.5 -1
v 3.9 4.6 -1
v 3.9 6.5 -1
v 3 7.1 -1.3
v 3 7.4 -1.3
v 3.5 7.1 -1.3
v 3.5 7.4 -1.3
v 0.8 7.1 -2.2
v 0.8 7.4 -2.2
v 1.1 7.1 -2.2
v 1.1 7.4 -2.2
v 1.4 6 -3.1
v 1.4 6.2 -3.1
v 2.6 6 -3.1
v 2.6 6.2 -3.1
v 0.2 7.1 -3.8
v 0.2 7.2 -3.8
v 1.4 7.1 -3.8
v 1.4 7.2 -3.8
v 2.6 7.1 -3.8
v 2.6 7.2 -3.8
v 3.8 7.1 -3.8
v 3.8 7.2 -3.8
v 0.2 7.1 -0.2
v 0.2 7.2 -0.2
v 3.8 7.1 -0.2
v 3.8 7.2 -0.2
v 1.4 6.7 -0.3
v 1.4 6.8 -0.3
v 1.4 7.1 -0.3
v 2.6 6.7 -0.3
v 2.6 6.8 -0.3
v 2.6 7.1 -0.3
v 1.4 5.5 -1.1
v 1.4 5.8 -1.1
v 2.6 5.5 -1.1
v 2.6 5.8 -1.1
v 0.8 7.1 -2.8
v 0.8 7.4 -2.8
v 1.1 7.1 -2.8
v 1.1 7.4 -2.8
v 3 7.1 -3.2
v 3 7.4 -3.2
v 3.5 7.1 -3.2
v 3.5 7.4 -3.2
v 1.4 6 -3.5
v 1.4 6.2 -3.5
v 2.6 6 -3.5
v 2.6 6.2 -3.5
v 0 2 -4
v 0 3 -4
v 0 3.2 -4
v 0 7.2 -4
v 1.4 4.6 -4
v 1.4 7.2 -4
v 2.6 4.6 -4
v 2.6 7.2 -4
v 4 2 -4
v 4 3 -4
v 4 3.2 -4
v 4 7.2 -4
v 0 2 -0.3
v 4 2 -0.3
v 0 2 -4
v 4 2 -4
v 1.4 5.5 -0.8
v 2.6 5.5 -0.8
v 1.4 5.5 -1.1
v 2.6 5.5 -1.1
v 1.4 6 -3.1
v 2.6 6 -3.1
v 1.4 6 -3.5
v 2.6 6 -3.5
v 0.1 6.5 -0.3
v 1.3 6.5 -0.3
v 2.7 6.5 -0.3
v 3.9 6.5 -0.3
v 0.1 6.5 -0.8
v 1.3 6.5 -0.8
v 2.7 6.5 -1
v 3.9 6.5 -1
v 0 6.7 0
v 4 6.7 0
v 0 6.7 -0.3
v 1.4 6.7 -0.3
v 2.6 6.7 -0.3
v 4 6.7 -0.3
v 0.1 7.1 0
v 3.9 7.1 0
v 0.1 7.1 -0.2
v 3.9 7.1 -0.2
v 0.1 4.6 -0.3
v 1.3 4.6 -0.3
v 1.4 4.6 -0.3
v 2.6 4.6 -0.3
v 2.7 4.6 -0.3
v 3.9 4.6 -0.3
v 0.1 4.6 -0.8
v 1.3 4.6 -0.8
v 2.7 4.6 -1
v 3.9 4.6 -1
v 1.4 4.6 -4
v 2.6 4.6 -4
v 1.4 5.8 -0.8
v 2.6 5.8 -0.8
v 1.4 5.8 -1.1
v 2.6 5.8 -1.1
v 1.4 6.2 -3.1
v 2.6 6.2 -3.1
v 1.4 6.2 -3.5
v 2.6 6.2 -3.5
v 0.1 6.8 0
v 3.9 6.8 0
v 0.1 6.8 -0.2
v 3.9 6.8 -0.2
v 0.2 7.1 -0.2
v 3.8 7.1 -0.2
v 0.2 7.1 -0.3
v 1.4 7.1 -0.3
v 2.6 7.1 -0.3
v 3.8 7.1 -0.3
v 3 7.1 -1.3
v 3.5 7.1 -1.3
v 0.8 7.1 -2.2
v 1.1 7.1 -2.2
v 0.8 7.1 -2.8
v 1.1 7.1 -2.8
v 3 7.1 -3.2
v 3.5 7.1 -3.2
v 0.2 7.1 -3.8
v 1.4 7.1 -3.8
v 2.6 7.1 -3.8
v 3.8 7.1 -3.8
v 0 7.2 0
v 4 7.2 0
v 0.2 7.2 -0.2
v 3.8 7.2 -0.2
v 0.2 7.2 -3.8
v 1.4 7.2 -3.8
v 2.6 7.2 -3.8
v 3.8 7.2 -3.8
v 0 7.2 -4
v 1.4 7.2 -4
v 2.6 7.2 -4
v 4 7.2 -4
v 3 7.4 -1.3
v 3.5 7.4 -1.3
v 0.8 7.4 -2.2
v 1.1 7.4 -2.2
v 0.8 7.4 -2.8
v 1.1 7.4 -2.8
v 3 7.4 -3.2
v 3.5 7.4 -3.2

# faces
f 3/2/1 2/2/1 1/2/1
f 4/2/1 2/2/1 3/2/1
f 5/3/1 4/3/1 3/3/1
f 6/3/1 4/3/1 5/3/1
f 7/2/1 6/2/1 5/2/1
f 8/2/1 6/2/1 7/2/1
f 9/3/1 8/3/1 7/3/1
f 10/2/1 6/2/1 8/2/1
f 10/3/1 8/3/1 9/3/1
f 12/2/1 10/2/1 9/2/1
f 13/2/1 12/2/1 11/2/1
f 14/2/1 6/2/1 10/2/1
f 14/2/1 12/2/1 13/2/1
f 14/2/1 10/2/1 12/2/1
f 17/2/1 16/2/1 15/2/1
f 18/2/1 16/2/1 17/2/1
f 21/2/1 20/2/1 19/2/1
f 22/2/1 20/2/1 21/2/1
f 25/2/1 24/2/1 23/2/1
f 26/2/1 24/2/1 25/2/1
f 27/2/1 25/2/1 23/2/1
f 28/2/1 24/2/1 26/2/1
f 29/2/1 24/2/1 28/2/1
f 29/2/1 28/2/1 27/2/1
f 30/2/1 24/2/1 29/2/1
f 31/2/1 29/2/1 27/2/1
f 32/2/1 24/2/1 30/2/1
f 33/2/1 27/2/1 23/2/1
f 33/2/1 32/2/1 31/2/1
f 33/2/1 31/2/1 27/2/1
f 34/2/1 32/2/1 33/2/1
f 35/2/1 32/2/1 34/2/1
f 36/2/1 24/2/1 32/2/1
f 36/2/1 32/2/1 35/2/1
f 37/2/1 24/2/1 36/2/1
f 38/2/1 24/2/1 37/2/1
f 41/2/1 40/2/1 39/2/1
f 42/2/1 40/2/1 41/2/1
f 46/2/1 44/2/1 43/2/1
f 46/2/1 45/2/1 44/2/1
f 47/2/1 45/2/1 46/2/1
f 50/2/1 49/2/1 48/2/1
f 51/2/1 49/2/1 50/2/1
f 54/2/1 53/2/1 52/2/1
f 55/2/1 53/2/1 54/2/1
f 56/2/2 57/2/2 58/2/2
f 58/2/2 57/2/2 59/2/2
f 60/2/2 61/2/2 62/2/2
f 62/2/2 61/2/2 63/2/2
f 64/2/2 65/2/2 67/2/2
f 65/2/2 66/2/2 67/2/2
f 67/2/2 66/2/2 68/2/2
f 69/2/2 70/2/2 71/2/2
f 71/2/2 70/2/2 72/2/2
f 73/2/2 74/2/2 75/2/2
f 75/2/2 74/2/2 76/2/2
f 73/2/2 75/2/2 77/2/2
f 76/2/2 74/2/2 78/2/2
f 78/2/2 74/2/2 79/2/2
f 77/2/2 78/2/2 79/2/2
f 79/2/2 74/2/2 80/2/2
f 77/2/2 79/2/2 81/2/2
f 80/2/2 74/2/2 82/2/2
f 73/2/2 77/2/2 83/2/2
f 81/2/2 82/2/2 83/2/2
f 77/2/2 81/2/2 83/2/2
f 83/2/2 82/2/2 84/2/2
f 84/2/2 82/2/2 85/2/2
f 82/2/2 74/2/2 86/2/2
f 85/2/2 82/2/2 86/2/2
f 86/2/2 74/2/2 87/2/2
f 87/2/2 74/2/2 88/2/2
f 89/2/2 90/2/2 91/2/2
f 91/2/2 90/2/2 92/2/2
f 93/2/2 94/2/2 95/2/2
f 95/2/2 94/2/2 96/2/2
f 97/2/2 98/2/2 99/2/2
f 99/2/2 98/2/2 100/2/2
f 99/3/2 100/3/2 101/3/2
f 101/3/2 100/3/2 102/3/2
f 101/2/2 102/2/2 103/2/2
f 103/2/2 102/2/2 104/2/2
f 103/3/2 104/3/2 105/3/2
f 104/2/2 102/2/2 106/2/2
f 105/3/2 104/3/2 106/3/2
f 105/2/2 106/2/2 108/2/2
f 107/2/2 108/2/2 109/2/2
f 106/2/2 102/2/2 110/2/2
f 109/2/2 108/2/2 110/2/2
f 108/2/2 106/2/2 110/2/2
f 113/2/3 112/2/3 111/2/3
f 114/2/3 112/2/3 113/2/3
f 115/2/3 113/2/3 111/2/3
f 116/2/3 112/2/3 114/2/3
f 117/2/3 115/2/3 111/2/3
f 117/2/3 116/2/3 115/2/3
f 118/2/3 112/2/3 116/2/3
f 118/2/3 116/2/3 117/2/3
f 121/3/3 120/3/3 119/3/3
f 122/3/3 120/3/3 121/3/3
f 129/2/3 128/2/3 127/2/3
f 130/2/3 128/2/3 129/2/3
f 131/2/3 129/2/3 127/2/3
f 132/2/3 128/2/3 130/2/3
f 133/2/3 131/2/3 127/2/3
f 133/2/3 132/2/3 131/2/3
f 134/2/3 128/2/3 132/2/3
f 134/2/3 132/2/3 133/2/3
f 135/2/3 133/2/3 127/2/3
f 137/2/3 135/2/3 127/2/3
f 137/2/3 136/2/3 135/2/3
f 138/2/3 136/2/3 137/2/3
f 139/2/3 137/2/3 127/2/3
f 140/2/3 136/2/3 138/2/3
f 141/2/3 124/2/3 123/2/3
f 142/3/3 125/3/3 124/3/3
f 142/2/3 124/2/3 141/2/3
f 143/2/3 126/2/3 125/2/3
f 143/3/3 125/3/3 142/3/3
f 144/3/3 127/3/3 126/3/3
f 144/2/3 126/2/3 143/2/3
f 145/2/3 140/2/3 139/2/3
f 145/3/3 127/3/3 144/3/3
f 145/2/3 139/2/3 127/2/3
f 146/2/3 136/2/3 140/2/3
f 146/2/3 140/2/3 145/2/3
f 149/1/3 148/1/3 147/1/3
f 150/1/3 148/1/3 149/1/3
f 153/1/3 152/1/3 151/1/3
f 154/1/3 152/1/3 153/1/3
f 157/1/3 156/1/3 155/1/3
f 158/1/3 156/1/3 157/1/3
f 161/2/3 160/2/3 159/2/3
f 162/2/3 160/2/3 161/2/3
f 165/2/3 164/2/3 163/2/3
f 166/2/3 164/2/3 165/2/3
f 169/1/3 168/1/3 167/1/3
f 170/1/3 168/1/3 169/1/3
f 173/2/3 172/2/3 171/2/3
f 174/2/3 172/2/3 173/2/3
f 177/2/3 176/2/3 175/2/3
f 178/2/3 176/2/3 177/2/3
f 179/2/4 180/2/4 181/2/4
f 181/2/4 180/2/4 182/2/4
f 183/2/4 184/2/4 186/2/4
f 184/3/4 185/3/4 187/3/4
f 186/2/4 184/2/4 187/2/4
f 187/3/4 185/3/4 188/3/4
f 189/1/4 190/1/4 191/1/4
f 191/1/4 190/1/4 192/1/4
f 193/2/4 194/2/4 195/2/4
f 195/2/4 194/2/4 196/2/4
f 197/2/4 198/2/4 199/2/4
f 199/2/4 198/2/4 200/2/4
f 201/1/4 202/1/4 203/1/4
f 203/1/4 202/1/4 204/1/4
f 207/2/4 208/2/4 209/2/4
f 209/2/4 208/2/4 210/2/4
f 207/2/4 209/2/4 211/2/4
f 205/2/4 206/2/4 213/2/4
f 206/3/4 207/3/4 214/3/4
f 213/2/4 206/2/4 214/2/4
f 211/2/4 212/2/4 215/2/4
f 214/3/4 207/3/4 215/3/4
f 207/2/4 211/2/4 215/2/4
f 215/2/4 212/2/4 216/2/4
f 219/2/5 218/2/5 217/2/5
f 220/2/5 218/2/5 219/2/5
f 223/1/5 222/1/5 221/1/5
f 224/1/5 222/1/5 223/1/5
f 227/1/5 226/1/5 225/1/5
f 228/1/5 226/1/5 227/1/5
f 233/2/5 230/2/5 229/2/5
f 234/2/5 230/2/5 233/2/5
f 235/2/5 232/2/5 231/2/5
f 236/2/5 232/2/5 235/2/5
f 239/2/5 238/2/5 237/2/5
f 240/2/5 238/2/5 239/2/5
f 241/2/5 238/2/5 240/2/5
f 242/2/5 238/2/5 241/2/5
f 245/2/5 244/2/5 243/2/5
f 246/2/5 244/2/5 245/2/5
f 247/2/6 248/2/6 253/2/6
f 253/2/6 248/2/6 254/2/6
f 251/2/6 252/2/6 255/2/6
f 255/2/6 252/2/6 256/2/6
f 249/2/6 250/2/6 257/2/6
f 257/2/6 250/2/6 258/2/6
f 259/1/6 260/1/6 261/1/6
f 261/1/6 260/1/6 262/1/6
f 263/1/6 264/1/6 265/1/6
f 265/1/6 264/1/6 266/1/6
f 267/2/6 268/2/6 269/2/6
f 269/2/6 268/2/6 270/2/6
f 271/3/6 272/3/6 273/3/6
f 273/3/6 272/3/6 274/3/6
f 274/3/6 272/3/6 275/3/6
f 275/3/6 272/3/6 276/3/6
f 275/2/6 276/2/6 277/2/6
f 277/2/6 276/2/6 278/2/6
f 273/2/6 274/2/6 279/2/6
f 279/2/6 274/2/6 280/2/6
f 273/2/6 279/2/6 281/2/6
f 280/2/6 274/2/6 282/2/6
f 275/2/6 277/2/6 283/2/6
f 278/2/6 276/2/6 284/2/6
f 281/2/6 282/2/6 285/2/6
f 273/2/6 281/2/6 285/2/6
f 282/2/6 274/2/6 286/2/6
f 285/2/6 282/2/6 286/2/6
f 275/2/6 283/2/6 287/2/6
f 283/2/6 284/2/6 287/2/6
f 284/2/6 276/2/6 288/2/6
f 287/2/6 284/2/6 288/2/6
f 289/2/6 290/2/6 291/2/6
f 291/2/6 290/2/6 292/2/6
f 289/2/6 291/2/6 293/2/6
f 292/2/6 290/2/6 296/2/6
f 293/2/6 294/2/6 297/2/6
f 289/2/6 293/2/6 297/2/6
f 297/2/6 294/2/6 298/2/6
f 295/2/6 296/2/6 299/2/6
f 296/2/6 290/2/6 300/2/6
f 299/2/6 296/2/6 300/2/6
f 303/2/6 304/2/6 305/2/6
f 305/2/6 304/2/6 306/2/6
f 301/2/6 302/2/6 307/2/6
f 307/2/6 302/2/6 308/2/6
